<svg width="19" height="19" viewBox="0 0 19 19" fill="none" xmlns="http://www.w3.org/2000/svg">
<g clip-path="url(#clip0_1_3008)">
<path d="M16.6899 15.28C16.5219 14.356 16.2099 13.492 15.7539 12.688C15.2979 11.884 14.7099 11.194 13.9899 10.618C13.3659 10.078 12.6339 9.646 11.7939 9.322C12.3699 8.878 12.8259 8.32899 13.1619 7.675C13.4979 7.021 13.6659 6.32199 13.6659 5.578C13.6659 4.71399 13.4559 3.91899 13.0359 3.193C12.6159 2.467 12.0429 1.894 11.3169 1.474C10.5909 1.054 9.79587 0.843996 8.93187 0.843996C8.06787 0.843996 7.27287 1.054 6.54687 1.474C5.82087 1.894 5.24787 2.467 4.82787 3.193C4.40787 3.91899 4.19787 4.71399 4.19787 5.578C4.19787 6.32199 4.36587 7.021 4.70187 7.675C5.03787 8.32899 5.49388 8.878 6.06987 9.322C5.26587 9.658 4.53987 10.09 3.89187 10.618C3.19587 11.194 2.61387 11.878 2.14587 12.67C1.67787 13.462 1.35987 14.302 1.19187 15.19L0.921875 16.612L2.46987 16.918L2.75787 15.514C2.88987 14.782 3.13888 14.104 3.50487 13.48C3.87087 12.856 4.34187 12.307 4.91787 11.833C5.49388 11.359 6.12687 10.999 6.81687 10.753C7.50687 10.507 8.21187 10.384 8.93187 10.384C9.65187 10.384 10.3659 10.51 11.0739 10.762C11.7819 11.014 12.4119 11.368 12.9639 11.824C13.5399 12.304 14.0139 12.865 14.3859 13.507C14.7579 14.149 15.0039 14.83 15.1239 15.55L15.3939 16.954L16.9239 16.648L16.6899 15.28ZM8.93187 2.41C9.50787 2.41 10.0389 2.551 10.5249 2.833C11.0109 3.115 11.3949 3.499 11.6769 3.98499C11.9589 4.47099 12.0999 5.002 12.0999 5.578C12.0999 6.154 11.9589 6.685 11.6769 7.17099C11.3949 7.65699 11.0109 8.041 10.5249 8.323C10.0389 8.60499 9.50787 8.746 8.93187 8.746C8.35587 8.746 7.82487 8.60499 7.33887 8.323C6.85287 8.041 6.46887 7.65699 6.18687 7.17099C5.90487 6.685 5.76388 6.154 5.76388 5.578C5.76388 5.002 5.90487 4.47099 6.18687 3.98499C6.46887 3.499 6.85287 3.115 7.33887 2.833C7.82487 2.551 8.35587 2.41 8.93187 2.41Z" fill="#3E445A"/>
</g>
<defs>
<clipPath id="clip0_1_3008">
<rect width="18" height="18" fill="white" transform="matrix(1 0 0 -1 0.129883 18.25)"/>
</clipPath>
</defs>
</svg>
